 <!-- <?xml version="1.0" encoding="UTF-8"?> -->
    <svg id="hear-people" xmlns="http://www.w3.org/2000/svg" viewBox="0 0 1000 1000" class="hand">
      <defs>
        <style>
          .cls-1h {
            fill: #fff;
          }
    
          .cls-1h, .cls-2h {
            stroke-width: 0px;
          }
    
          .cls-2h {
            fill: #3c3e5a;
          }
        </style>
      </defs>
      <g id="hand">
        <g class="finger-rotate">
          <path class="cls-1h" d="m469.08,723.43c-14.14-17.36-72.54-92.82-72.54-92.82l1.54-81.97c-44.08-14.95-76.05-3.94-94.48,36.06,0,0-4.37,38.33-1.87,61.69,2.42,13.86,168.01,184.48,195.08,172.15,26.56-18.66-5.46-69.79-27.73-95.1Z"/>
          <path class="cls-2h" d="m494.34,820.76c-3.96.27-9.34-1.41-16.31-5.09-31.48-16.6-85.53-68.36-107.31-89.84-33.71-33.25-69.33-71.96-70.59-79.18-2.5-23.38,1.81-61.77,1.86-62.15.02-.17.07-.34.14-.5,18.42-39.96,50.88-52.39,96.48-36.92.67.23,1.12.86,1.1,1.57l-1.53,81.4c4.88,6.31,58.72,75.82,72.15,92.32,15.51,17.64,40.92,54.19,37.91,79.44-.92,7.73-4.45,13.8-10.49,18.05-.08.06-.17.11-.26.15-.92.42-1.97.67-3.14.75Zm2.46-2.23h.01s-.01,0-.01,0Zm-191.62-233.4c-.37,3.4-4.18,39.16-1.84,61.07.85,4.87,29.68,37.89,69.66,77.32,21.68,21.38,75.45,72.88,106.54,89.28,9.73,5.13,14.31,5.2,16.46,4.31,5.17-3.69,8.2-8.96,9-15.68,1.2-10.12-2.62-23.81-11.07-39.6-6.68-12.48-16.18-26.08-26.07-37.33-.01-.02-.03-.03-.04-.05-13.99-17.18-71.98-92.1-72.57-92.86-.23-.29-.35-.65-.34-1.02l1.52-80.78c-21.3-7.04-39.68-7.79-54.64-2.21-15.39,5.73-27.71,18.36-36.6,37.56Z"/>
        </g>
        <g class="">
          <path class="cls-1h" d="m398.91,543.87l-2.48,76.59s71.02,79.6,86.09,84.11c15.07,4.51,82.82,10.91,106.28,4.43,30.51-12.14-7.68-62.12-70.78-64.58,0,0,54.09.86,76.47-11.78,17.86-15.81-9.94-38.72-9.94-38.72l-185.64-50.06Z"/>
          <path class="cls-2h" d="m573.51,712.86c-29.89,2.06-78.85-2.97-91.46-6.74-15.33-4.59-83.92-81.32-86.84-84.59-.28-.31-.42-.72-.41-1.13l2.48-76.59c.02-.5.26-.96.66-1.25.4-.29.91-.39,1.39-.26l185.64,50.06c.22.06.43.17.61.31.66.55,16.27,13.56,16.51,27.29.09,5.3-2.1,9.98-6.53,13.9-.09.08-.18.14-.28.2-13.52,7.63-37.89,10.43-55.68,11.45,35.88,7.81,58.52,30.22,61.22,45.97,1.5,8.75-2.56,15.51-11.43,19.03-.05.02-.11.04-.17.06-4.07,1.12-9.48,1.86-15.72,2.3Zm-175.44-93c2.84,3.17,19.21,21.39,36.93,39.84,33.91,35.34,44.62,42.3,47.98,43.31,14.98,4.48,82.06,10.8,105.29,4.45,7.34-2.95,10.57-8.28,9.34-15.43-3.09-18.02-34.89-44.23-79.67-45.98-.89-.03-1.59-.78-1.56-1.67.02-.89.76-1.59,1.65-1.58.53,0,53.66.7,75.5-11.48,3.6-3.24,5.38-7.03,5.31-11.29-.2-11.33-13.07-22.9-15.07-24.62l-183.31-49.43-2.39,73.88Z"/>
        </g>
        <g >
          <path class="cls-1h" d="m754.87,180.83s-51.35,91.54-150.7,139.78c-99.35,48.24-212.9,32.16-260.86,56.2-47.96,24.04-145.77,195-145.77,195,0,0-101.57,192.72-102.89,217.46-.88,31.19,42.99,28.11,72.07-.11,42.02-40.78,120.21-169.9,120.21-169.9,0,0,44.19-54.12,60.19-60.72,16-6.6,90.51-6.48,101.49,10.84,15,29.7-82.49,139.29-108.16,177.23-25.66,37.93-4.35,84.79,55.46,48.92,73.14-44.63,106.23-139.97,162.5-171.03,104.72-46.16,114.67-83.4,181.12-162.85,66.45-79.44,165.82-155.86,165.82-155.86l-150.49-124.95Z"/>
          <path class="cls-2h" d="m361.34,809.88c-13.81.95-21.56-4.8-25.05-8.49-11.78-12.44-10.6-35.87,2.82-55.7,6.23-9.21,16.63-22.56,28.66-38.02,35.92-46.13,90.18-115.81,79.42-137.49-4.49-6.93-22.25-12-47.55-13.57-21.24-1.32-44.04.18-51.9,3.43-15.14,6.25-57.46,57.7-59.48,60.16-2.56,4.22-79.21,130.15-120.4,170.12-19.33,18.76-46.15,27.52-62.4,20.38-8.31-3.65-12.72-11.28-12.43-21.48,1.32-24.85,98.92-210.29,103.07-218.17.27-.48,24.86-43.36,54.99-88.63,40.57-60.95,71.35-96.97,91.49-107.07,20.16-10.11,51.78-13.22,88.4-16.82,51.05-5.03,114.59-11.28,172.47-39.38,97.72-47.45,149.48-138.2,149.99-139.12.44-.78,1.43-1.06,2.21-.62.78.44,1.06,1.43.62,2.21-.13.23-13.21,23.37-38.29,52.08-23.14,26.5-61.55,63.34-113.12,88.37-58.4,28.36-122.26,34.64-173.57,39.7-36.3,3.57-67.64,6.66-87.26,16.5-46.97,23.54-144.12,192.65-145.09,194.35-.99,1.87-101.39,192.64-102.67,216.74-.25,8.87,3.38,15.24,10.49,18.37,14.85,6.53,40.69-2.13,58.82-19.73,41.39-40.17,119.17-168.28,119.95-169.57.04-.07.08-.13.13-.19,1.82-2.22,44.64-54.51,60.83-61.2,15.86-6.55,91.82-6.92,103.49,11.47.03.04.05.09.08.14,11.84,23.44-41.09,91.4-79.73,141.03-12,15.41-22.36,28.72-28.53,37.84-12.57,18.58-13.89,40.3-3.15,51.64,5.23,5.52,21.2,16.1,56.43-5.02,38-23.19,64.71-59.62,90.54-94.85,23.09-31.49,44.89-61.24,72.02-76.21.04-.02.09-.05.13-.06,81.94-36.12,105.34-66.44,144.12-116.66,10.39-13.46,22.18-28.72,36.41-45.74,65.81-78.67,165.08-155.34,166.07-156.11.71-.55,1.73-.41,2.28.3.55.71.41,1.73-.3,2.28-.99.76-99.99,77.22-165.56,155.62-14.2,16.97-25.96,32.2-36.33,45.64-39.08,50.62-62.67,81.18-145.31,117.62-26.47,14.64-48.06,44.09-70.91,75.26-26.01,35.49-52.91,72.18-91.47,95.71-14.74,8.84-26.38,12.34-35.42,12.96Z"/>
        </g>
      </g>
    </svg>