<?xml version="1.0" encoding="utf-8"?>
<!-- Generator: Adobe Illustrator 27.1.0, SVG Export Plug-In . SVG Version: 6.00 Build 0)  -->
<svg version="1.1" id="Layer_1" xmlns="http://www.w3.org/2000/svg" xmlns:xlink="http://www.w3.org/1999/xlink" x="0px" y="0px"
	 viewBox="0 0 88 116" style="enable-background:new 0 0 88 116;" xml:space="preserve">
<style type="text/css">
	.st0{fill:#252525;}
</style>
<g>
	<path class="st0" d="M46.2,7.8c-3-0.7-5.9-0.9-8.8-0.8c-14,0.8-26.3,12.8-29.1,27.4c-1,5.3-1,10.6,0.2,15.8
		c0.3,1.5,0.3,1.5,1.9,1.3c6-0.8,11.7,3.4,12.7,9.4c1,6.1-2.9,11.8-8.9,13C7.1,75.4,0.5,70.2,0.5,62.9c0-3.5,1.3-6.4,4-8.7
		c0.6-0.5,0.7-1,0.5-1.8C1.6,38,4.5,25,14.7,14c5.7-6.1,12.7-9.9,21.2-10.8c3.6-0.4,7.2-0.2,10.7,0.6c0.8,0.2,1.1,0,1.3-0.7
		c0.9-3.5,1.8-3.4,4.9-2.6C61.1,2.5,68.6,6,75,11.7c6.2,5.6,10,12.5,11.4,20.8c1.3,7.1,1.5,14.2,0.2,21.4c-1.8,9.9-5,19.2-11.4,27.2
		c-1.7,2.1-3.1,4.3-4.7,6.5c-1,1.4-1.9,1.5-3.3,0.6c-2.6-1.8-5.3-3.5-7.9-5.3c-0.6-0.4-1-0.4-1.5,0.1c-6.4,5.9-11.6,12.7-14.6,21
		c-2.7,7.3-10.2,12.8-18.7,11.9c-6.1-0.6-10.4-3.8-13-9.2c-1.2-2.5-1.8-5.4-2.6-8.1c-0.3-1.2,0.4-2.3,1.5-2.5
		c1.2-0.2,2.1,0.5,2.5,1.8c0.5,1.9,0.9,3.7,1.5,5.5c3.9,10.5,15.5,10.9,21.8,4.3c1.3-1.4,2.5-3.2,3.2-5c3.5-9.1,9.2-16.6,16.4-23.1
		c5.2-4.7,10-9.9,12.9-16.5c5.2-11.8,5.1-23.4-1.5-34.6c-3.9-6.6-9.9-10.3-17.3-11.8c-4.8-1-9.6-1.2-14.4,0.2
		c-6.7,1.9-11.5,6.3-15,12.1c-1.3,2.2-2.2,4.6-3.3,6.9c-0.5,1.2-1.4,1.8-2.4,1.5C13.6,37,13,36,13.5,34.8
		c3.8-10.7,10.3-18.9,21.8-21.9c2.7-0.7,5.6-0.7,8.4-0.9c0.9-0.1,1.4-0.2,1.6-1.2C45.5,9.8,45.8,8.9,46.2,7.8z M68.2,84.1
		c0.9-1.3,1.8-2.5,2.6-3.7c2-3,4.3-5.8,5.9-8.9c5.7-11.4,8-23.5,6.1-36.3c-0.8-5.4-2.4-10.5-5.6-15c-6.2-8.6-15-13.1-25-15.8
		c-0.2-0.1-0.7,0.2-0.8,0.5c-0.9,2.4-1.7,4.9-2.6,7.5c0.5,0.1,0.8,0.2,1.2,0.3c8.4,1.6,15.2,5.6,19.9,12.9
		c5.3,8.1,7.1,17.1,5.9,26.7c-1.1,8.4-4.5,15.8-9.9,22.3c-1.4,1.7-2.9,3.3-4.4,5.1C63.8,81.1,66,82.6,68.2,84.1z M11.8,70.2
		c4.2,0,7.5-3.2,7.5-7.4c0-6.5-8.1-9.7-12.7-5.2C2,62.2,5.4,70.3,11.8,70.2z"/>
	<path class="st0" d="M28.7,40.4c3-1.2,5.7-2.3,9.1-2.2c3.3,0.2,6.4,1.3,9.2,3c4.6,2.8,7.4,7.4,8.2,12.7c0.8,5.7-0.5,11.6-3.9,16.3
		c-1.5,2.1-3.5,3.8-5.9,4.8c-2.4,1-4.9,1.1-7.1,2.5c-4.6,2.9-4.5,8.7-8.4,12.1c-3.4,2.9-9.7,4.2-12.2-0.5c-1.3-2.4-1.1-5.5-0.8-8.1
		c0.1-1.1,0.1-2.4,1.4-2.9c1.2-0.4,2.2,0.5,2.5,1.6c0.7,2.2-1.3,6.7,1,8.3c1.7,1.2,4.9-0.7,6.1-1.9c1.6-1.8,2.1-4.4,3.2-6.5
		c1.6-2.7,3.9-5,6.7-6.4c2.3-1.1,4.8-1.2,7-2.4c2.3-1.3,3.8-3.3,4.9-5.7c4.6-10.3-0.8-22.7-12.8-23c-2.3-0.1-4.4,0.6-6.2,2.1
		c-3.1,2.6-2.7,5-1.7,8.6c0.4,1.7,2.4,5.5,0.4,6.8c-2.8,1.8-3.8-3.7-4.3-5.3c-1.5-5.4-1.9-11.7,0.6-16.9c2.3-4.9,6.9-7.5,11.9-8.8
		c6.7-1.7,14-0.2,18.7,5.1c1.7,1.9,9.4,16.1,4.2,16.1c-2.6,0-2.9-5.9-3.8-7.8c-1.2-2.9-3-5.7-5.6-7.5c-5-3.7-12.7-3.1-17.8,0.1
		C31.1,35.8,29.6,37.8,28.7,40.4z"/>
</g>
</svg>
