  <!-- <?xml version="1.0" encoding="UTF-8"?> -->
  <svg xmlns="http://www.w3.org/2000/svg" viewBox="0 0 4000 2200">
  <defs>
    <style>
      .cls-1 {
        opacity: .1;
      }

      .cls-1, .cls-2 {
        fill: #77b9e7;
      }

      .cls-1, .cls-2, .cls-3, .cls-4, .cls-5, .cls-6 {
        stroke-width: 0px;
      }

      .cls-7 {
        isolation: isolate;
      }

      .cls-3 {
        fill: #b3b3b3;
        opacity: .56;
      }

      .cls-8 {
        opacity: .2;
      }

      .cls-4 {
        fill: #fff;
      }

      .cls-5 {
        fill: #3c3e5a;
      }

      .cls-6 {
        fill: #bce4ff;
        mix-blend-mode: multiply;
      }
    </style>
    </defs>
    <g class="cls-7">
      <g id="BG">
        <g class="cls-8">
          <path class="cls-2" d="m3992,1637.7v5.57c-29.45-3.62-46.11.44-62.68,8.38-5.63,2.56-11.28,5.64-17.27,8.88-17.1,9.29-38.37,20.84-71.61,27.05-15.94,2.95-29.12,2.47-40.4-.4-21.98-5.56-36.79-20.15-50.88-36.13-2.61-2.92-5.24-5.95-7.91-9.01-19.3-22.21-41.17-47.37-79.59-53.76-42.5-6.98-64.42,24.06-86.71,62.27-1.63,2.76-3.25,5.55-4.88,8.35-7.5,12.88-15.37,26.35-24.44,38.6-2.42,3.27-4.91,6.45-7.53,9.5-14.4,16.96-31.9,30.14-55.14,33.54-2.99.44-5.89.65-8.71.65-35.08,0-56.56-32.4-73.19-66.27-1.86-3.78-3.65-7.59-5.4-11.36-2.06-4.46-4.05-8.89-6-13.21l-3.41-7.51c-21.38-47.32-43.51-96.26-85.14-101.53-39-4.87-60.79,38-83.53,96.79-1.08,2.79-2.15,5.61-3.24,8.47-.45,1.18-.9,2.38-1.35,3.57l-2.48,6.57c-22.33,58.97-45.41,119.98-91.21,124.92-1.69.17-3.34.27-4.96.27-45.93,0-69.11-69.9-89.65-131.82l-1.87-5.59c-21.98-66.1-44.72-134.46-87.68-138.29-44.43-4.55-67.69,72.47-90.19,146.92-16.17,53.51-32.72,108.31-57.87,137.17-10.37,11.89-22.19,19.38-36.05,20.56-36.65,2.93-58.71-41.8-77.65-100.53-6.38-19.76-12.41-41.12-18.52-62.78-22.43-79.56-45.62-161.82-89.61-164.63-27.94-1.71-47.59,32.13-63.94,78.46-9.65,27.33-18.16,59-26.56,90.26-23.06,85.81-46.89,174.56-95.17,176.63-.5.03-1.02.03-1.53.03-10.43,0-19.68-4.13-27.99-11.55-2.68-2.39-5.26-5.11-7.75-8.15-25.37-30.89-41.81-94.02-58.92-159.7-11.03-42.3-22.23-85.31-35.96-118.39-14.43-34.78-31.64-58.59-54.37-59.09h-.56c-24.02,0-41.88,26.94-56.81,65.7-12.49,32.4-22.94,73.06-33.21,113.1-24.25,94.43-47.15,183.61-95.9,183.69-48.74-.16-71.64-89.28-95.89-183.64-4.82-18.78-9.68-37.68-14.77-55.81-18.84-67.08-40.83-123.47-75.82-122.81-44.32,1.05-67.69,90.59-90.3,177.19-3.73,14.3-7.43,28.46-11.2,42.2-20.76,75.71-43.58,138.36-85.02,136.78-15.5-.69-28.48-10.29-39.74-25.83-23.76-32.84-39.77-92.24-55.42-150.29-22.63-83.98-45.99-170.74-90.51-168.12-43.97,2.88-67.16,84.75-89.58,163.93-11.26,39.73-22.22,78.43-35.64,108.12-1.45,3.21-2.92,6.33-4.45,9.32-14.63,28.95-32.28,47.05-56.09,45.1-47.49-4.09-71.09-81.76-93.92-156.86-22.5-74.03-45.77-150.61-90.17-146.02-42.99,3.86-65.72,71.72-87.7,137.33l-1.9,5.63c-20.52,61.43-43.7,130.78-89.58,130.8-1.65,0-3.32-.09-5.02-.28-45.78-4.94-68.86-65.41-91.19-123.89l-2.51-6.56c-24.46-64.28-46.47-113.02-88.12-107.82-41.61,5.27-63.74,53.7-85.12,100.55l-3.42,7.49c-7.14,15.66-14.91,32.73-24.3,47.74-16.35,26.12-37.62,46.02-68.98,41.49-30.77-4.47-51.46-25.88-68.28-50.47-2.3-3.36-4.53-6.78-6.69-10.22-4.21-6.69-8.2-13.46-12.11-20.06-1.63-2.79-3.27-5.55-4.9-8.3-22.29-37.75-44.2-68.4-86.73-61.47-38.39,6.32-60.25,31.14-79.55,53.04-2.68,3.04-5.32,6.04-7.96,8.96-21.28,23.84-44.28,44.55-91.23,35.94-33.18-6.13-54.43-17.48-71.5-26.6-6.03-3.21-11.71-6.25-17.32-8.76-18.57-8.75-37.26-12.68-73.97-6.54v-5.63c37.48-6.08,57.42-1.78,76.3,7.11,5.75,2.56,11.51,5.64,17.61,8.91,17.61,9.4,37.58,20.06,69.9,26.03,44.11,8.08,65.88-11.56,86.08-34.19,2.64-2.91,5.27-5.89,7.92-8.91,19.91-22.6,42.47-48.21,82.83-54.86,6.19-1.01,11.96-1.3,17.36-.96,9.82.61,18.46,3.34,26.27,7.7h.01c19.87,11.11,34.27,32.81,48.77,57.38,1.63,2.73,3.28,5.51,4.92,8.31,4.35,7.38,8.73,14.8,13.31,21.99,1.69,2.67,3.41,5.3,5.16,7.88,16.31,24.01,35.64,43.96,64.59,48.18,28.05,4.04,47-12.36,63.62-39.36,4.19-6.8,8.23-14.26,12.22-22.23,1.18-2.36,2.38-4.78,3.56-7.23,2.67-5.55,5.34-11.3,8.03-17.22l3.41-7.49c22.03-48.24,44.8-98.1,89.5-103.77,49.31-6.15,73.04,56.28,94.02,111.36l2.51,6.57c.72,1.87,1.43,3.74,2.15,5.61,1.22,3.21,2.46,6.41,3.7,9.61,20.04,51.74,42.12,100.94,80.72,105.11,44.8,4.78,68.15-65.11,88.75-126.75l1.88-5.63c22.55-67.32,45.86-136.91,92.45-141.11,48.91-5,71.81,70.26,96.02,149.95,22.3,73.34,45.34,149.17,89.06,152.94,20.47,1.67,36.45-14.91,49.96-41.07,1.67-3.24,3.31-6.64,4.9-10.17,13.53-29.75,24.6-68.84,35.49-107.28,22.95-81.03,46.68-164.84,94.6-167.96,49.06-2.96,71.95,82.12,96.23,172.21,15.6,57.86,31.56,117.08,54.55,148.73,10.23,14.07,21.86,22.68,35.47,23.29,35.92,1.49,58.03-56.48,77.12-124.45,4.62-16.43,9.05-33.46,13.47-50.37,24.18-92.66,47.04-180.2,95.57-181.35,38.98-.76,61.43,55.68,81.21,126.39,5.07,18.12,9.95,37.17,14.91,56.43,22.64,88.15,46.07,179.31,90.5,179.44,44.41-.07,67.84-91.28,90.5-179.51,10.3-40.11,20.36-79.27,32.25-111,16.01-42.71,35.36-71.98,63.13-71.98.24,0,.46.01.69.01,26.19.58,44.9,26.36,60.38,64.56,13.22,32.63,24.09,74.3,35.23,117.07,22.66,86.98,46.08,176.8,90.58,175.22,14.04-.61,25.96-9.77,36.42-24.67,1.51-2.15,2.99-4.42,4.45-6.81,20.15-33.09,34.8-87.64,49.15-141.03,8.61-32.08,17.06-63.53,26.56-90.62,17.27-49.24,38.03-84.1,69.65-82.2,47.94,3.07,71.68,87.25,94.63,168.66,5.79,20.55,11.64,41.27,17.88,60.67.72,2.23,1.43,4.43,2.18,6.62.48,1.45.96,2.88,1.45,4.3,17.32,51,38.01,90.18,68.86,87.68,11.95-1.02,22.35-7.46,31.6-17.79,20.88-23.24,35.97-66.22,49.95-111.4,1.04-3.31,2.04-6.62,3.05-9.94,1.49-4.88,2.97-9.77,4.45-14.65,24.21-80.14,47.11-155.87,96.05-150.85,46.56,4.15,69.88,74.26,92.44,142.06l1.87,5.6c20.6,62.12,43.99,132.47,88.75,127.77,42.39-4.58,64.85-63.94,86.58-121.36l2.5-6.57c20.97-55.56,44.74-118.54,94.02-112.37,44.72,5.67,67.49,56.04,89.53,104.75l3.4,7.51c2.42,5.36,4.82,10.61,7.22,15.68,1.92,4.06,3.85,8.03,5.79,11.87,19.47,38.55,40.16,64.4,74.42,59.44,21.66-3.16,37.92-15.25,51.59-31.33,2.11-2.48,4.17-5.07,6.16-7.74,9.23-12.26,17.32-26.16,25.33-39.87,1.65-2.81,3.28-5.6,4.9-8.38,23.35-39.99,46.43-72.49,92.42-64.92,40.39,6.7,62.97,32.68,82.88,55.59,2.65,3.04,5.27,6.05,7.88,8.96,14.36,16.31,29.51,31.09,52.87,35.36,9.53,1.77,20.44,1.75,33.22-.61,32.37-6.04,52.35-16.88,69.98-26.45,6.07-3.31,11.8-6.41,17.56-9.04,16.9-8.1,34.66-12.48,65.04-8.91Z"/>
        </g>
        <path class="cls-3" d="m1924.49,1638.93c-.03-3.05-2.51-5.52-5.56-5.52h-.05c-2.8.03-5.6.07-8.4.12-3.07.05-5.52,2.59-5.47,5.67.05,3.07,2.67,5.59,5.67,5.47,2.76-.05,5.53-.09,8.3-.12,3.08-.03,5.55-2.54,5.52-5.61Zm36.25.53c.08-3.07-2.34-5.63-5.42-5.72-2.8-.08-5.6-.13-8.42-.19h-.11c-3.03,0-5.51,2.42-5.56,5.46-.07,3.08,2.38,5.61,5.46,5.68,2.77.05,5.55.11,8.32.19,3.19.03,5.64-2.34,5.72-5.42Zm-72.39.25c-.13-2.99-2.6-5.32-5.56-5.32-.08,0-.17,0-.25.01-2.79.12-5.57.25-8.36.4-3.08.16-5.43,2.79-5.27,5.85.16,3.07,2.79,5.42,5.85,5.27,2.76-.15,5.51-.28,8.27-.4,3.08-.15,5.46-2.73,5.32-5.81Zm108.59,1.57c.19-3.07-2.15-5.71-5.22-5.91-2.8-.17-5.59-.33-8.39-.49h-.31c-2.95,0-5.4,2.3-5.56,5.27-.16,3.07,2.19,5.69,5.26,5.85,2.77.16,5.53.32,8.31.49,3.09.2,5.71-2.15,5.91-5.22Zm-144.68.46c-.23-2.92-2.67-5.14-5.54-5.14-.15,0-.29.01-.45.01-2.77.23-5.56.45-8.35.69-3.07.27-5.34,2.96-5.07,6.03.27,3.05,2.93,5.32,6.03,5.07,2.75-.24,5.51-.46,8.27-.68,3.07-.24,5.36-2.92,5.11-5.99Zm180.76,2.56c.29-3.05-1.95-5.77-5.02-6.07-2.79-.27-5.57-.52-8.36-.77-.16-.01-.33-.01-.49-.01-2.85,0-5.28,2.18-5.53,5.07-.27,3.07,1.99,5.77,5.06,6.04,2.76.24,5.52.49,8.28.76,3.07.31,5.77-1.95,6.07-5.02Zm-216.77.65c-.32-2.85-2.73-4.96-5.54-4.96-.2,0-.4,0-.61.03-2.77.31-5.55.61-8.34.94-3.05.35-5.24,3.12-4.88,6.17.36,3.05,3.13,5.26,6.17,4.88,2.75-.32,5.51-.62,8.26-.93,3.05-.33,5.27-3.08,4.94-6.13Zm247.89-2.72c-2.77-.35-5.55-.69-8.32-1.02-.23-.03-.45-.04-.66-.04-2.79,0-5.19,2.08-5.52,4.91-.37,3.05,1.82,5.83,4.87,6.2,2.75.32,5.5.66,8.24,1.01,3.08.37,5.84-1.78,6.23-4.83.38-3.05-1.78-5.84-4.83-6.22Zm-283.82,7.01c-.38-2.79-2.77-4.8-5.51-4.8-.25,0-.5.01-.77.05-2.76.37-5.54.77-8.3,1.17-3.05.44-5.16,3.27-4.73,6.3.44,3.05,3.27,5.18,6.32,4.73,2.73-.4,5.48-.8,8.23-1.17,3.04-.42,5.18-3.24,4.75-6.28Zm319.81-1.94c-2.76-.42-5.52-.85-8.3-1.26-.27-.04-.54-.07-.82-.07-2.71,0-5.08,1.99-5.5,4.77-.45,3.04,1.65,5.87,4.69,6.32,2.75.41,5.48.82,8.22,1.25,3.05.48,5.89-1.62,6.36-4.65.48-3.05-1.61-5.89-4.65-6.36Zm-355.61,7.22c-.45-2.72-2.81-4.66-5.5-4.66-.29,0-.6.01-.92.07-2.75.46-5.51.93-8.27,1.39-3.03.52-5.06,3.4-4.54,6.42.52,3.04,3.4,5.06,6.42,4.55,2.73-.46,5.47-.93,8.2-1.38,3.04-.5,5.1-3.37,4.59-6.4Zm391.4-1.19c-2.75-.5-5.5-1-8.24-1.47-.32-.05-.65-.08-.97-.08-2.65,0-5,1.9-5.48,4.61-.53,3.03,1.5,5.91,4.53,6.44,2.73.49,5.46.97,8.19,1.47,3.03.54,5.92-1.46,6.46-4.49.56-3.03-1.46-5.93-4.49-6.48Zm-427.08,7.39c-.5-2.68-2.84-4.54-5.47-4.54-.33,0-.69.03-1.04.09-2.75.53-5.5,1.05-8.24,1.59-3.01.58-4.98,3.5-4.39,6.53.58,3.01,3.5,4.99,6.53,4.39,2.72-.53,5.46-1.05,8.18-1.57,3.03-.57,5-3.49,4.43-6.5Zm462.71-.48c-2.73-.57-5.47-1.13-8.2-1.67-.37-.08-.73-.11-1.1-.11-2.6,0-4.92,1.82-5.46,4.47-.6,3.01,1.35,5.95,4.37,6.56,2.72.54,5.43,1.09,8.15,1.65,3.01.62,5.96-1.31,6.57-4.33.62-3.01-1.31-5.96-4.33-6.57Zm1820.45,12.82v-11.43c-.08-.01-.17-.01-.25-.01-.66,0-1.34.12-2,.37l-7.79,3.01c-2.87,1.12-4.3,4.34-3.2,7.21,1.11,2.87,4.33,4.29,7.21,3.19l6.04-2.34Zm-2318.68-5.35c-.56-2.61-2.88-4.41-5.46-4.41-.37,0-.77.03-1.15.12-2.73.57-5.47,1.15-8.2,1.75-3,.65-4.91,3.61-4.26,6.61.65,3.01,3.62,4.92,6.62,4.27,2.71-.58,5.43-1.17,8.15-1.74,3.01-.64,4.92-3.6,4.3-6.61Zm533.67.21c-2.71-.61-5.43-1.23-8.15-1.83-.41-.09-.82-.13-1.22-.13-2.55,0-4.86,1.75-5.43,4.35-.68,3,1.22,5.97,4.22,6.65,2.71.6,5.4,1.21,8.11,1.83,3,.68,5.99-1.19,6.66-4.19.69-3-1.19-5.99-4.19-6.68Zm-569.07,7.51c-.58-2.58-2.88-4.31-5.42-4.31-.41,0-.84.05-1.26.15-2.72.62-5.44,1.26-8.16,1.9-3,.7-4.84,3.7-4.14,6.7.7,2.99,3.69,4.84,6.69,4.14,2.71-.64,5.42-1.26,8.12-1.9,3-.69,4.86-3.68,4.17-6.68Zm604.35.89c-2.71-.68-5.42-1.34-8.12-1.99-.45-.11-.89-.16-1.33-.16-2.51,0-4.78,1.7-5.4,4.25-.73,2.99,1.1,6,4.09,6.73,2.69.65,5.39,1.31,8.08,1.98,2.97.76,6-1.07,6.74-4.06.73-2.99-1.09-6-4.06-6.74Zm1720.88,1.9c-.85-2.22-2.96-3.57-5.2-3.57-.66,0-1.34.12-1.99.37l-7.8,3c-2.88,1.1-4.31,4.31-3.21,7.19,1.1,2.87,4.33,4.3,7.19,3.2l7.82-3c2.87-1.1,4.3-4.33,3.2-7.19Zm-2360.47,5.57c-.62-2.54-2.91-4.23-5.4-4.23-.44,0-.89.05-1.34.16-2.71.68-5.43,1.35-8.14,2.03-2.99.76-4.79,3.78-4.04,6.76.74,2.99,3.77,4.81,6.76,4.05,2.69-.68,5.39-1.35,8.1-2.02,2.99-.74,4.8-3.76,4.06-6.74Zm674.68,1.54c-2.69-.72-5.39-1.43-8.08-2.14-.46-.12-.94-.17-1.41-.17-2.47,0-4.74,1.66-5.39,4.15-.77,2.97,1.01,6.03,3.98,6.8,2.68.7,5.36,1.41,8.04,2.12,2.96.8,6.03-.98,6.81-3.96.8-2.97-.98-6.03-3.96-6.81Zm1651.95,5.85c-.85-2.23-2.96-3.6-5.2-3.6-.66,0-1.33.12-1.98.37l-7.82,2.97c-2.88,1.09-4.33,4.3-3.23,7.18,1.09,2.87,4.3,4.33,7.18,3.23l7.82-2.97c2.87-1.09,4.31-4.31,3.23-7.18Zm-2361.75,1.49c-.65-2.5-2.91-4.15-5.38-4.15-.48,0-.96.05-1.42.19l-8.1,2.14c-2.28.6-3.86,2.55-4.1,4.77-.08.66-.04,1.35.15,2.04.78,2.97,3.82,4.74,6.81,3.96l3.04-.81,5.03-1.33c2.97-.77,4.75-3.82,3.97-6.8Zm744.75,2.19l-8.04-2.23c-.49-.15-1-.21-1.49-.21-2.44,0-4.69,1.62-5.36,4.09-.82,2.96.92,6.03,3.88,6.85l8.02,2.23c2.97.84,6.04-.89,6.86-3.86.84-2.96-.9-6.03-3.86-6.86Zm-779.76,7.15c-.68-2.48-2.92-4.1-5.36-4.1-.49,0-.98.07-1.47.2l-8.07,2.23c-2.97.82-4.71,3.89-3.89,6.85.82,2.96,3.89,4.71,6.85,3.88l8.06-2.22c2.96-.81,4.71-3.88,3.89-6.84Zm2362.88,2c-.84-2.23-2.96-3.61-5.22-3.61-.65,0-1.31.12-1.96.36l-7.82,2.93c-2.88,1.09-4.34,4.29-3.25,7.17,1.08,2.88,4.27,4.35,7.17,3.27l7.83-2.95c2.88-1.08,4.33-4.29,3.25-7.17Zm-1545.38,2.88c-.69-.96-1.7-1.7-2.92-2.06l-8.03-2.34c-.52-.15-1.04-.21-1.55-.21-2.42,0-4.63,1.58-5.34,4.01-.86,2.96.84,6.04,3.8,6.9l6.29,1.84,1.7.49c2.95.86,6.04-.84,6.92-3.78.5-1.73.13-3.5-.86-4.86Zm-852.4,4.8c-.7-2.44-2.93-4.05-5.35-4.05-.5,0-1.02.07-1.53.21l-8.06,2.3c-2.95.85-4.66,3.93-3.82,6.89.85,2.95,3.93,4.66,6.89,3.82l8.03-2.3c2.96-.84,4.67-3.92,3.84-6.88Zm884.19,3.49l-8-2.42c-.53-.16-1.08-.24-1.61-.24-2.39,0-4.61,1.55-5.34,3.97-.88,2.95.78,6.05,3.73,6.93l7.98,2.42c2.95.89,6.05-.77,6.94-3.72.9-2.95-.77-6.05-3.7-6.94Zm-2335.03,1.29c-2.55-1.08-5.11-2.16-7.66-3.27-.72-.31-1.46-.45-2.19-.45-2.16,0-4.22,1.26-5.12,3.37-1.21,2.83.09,6.11,2.92,7.31,2.56,1.1,5.14,2.2,7.71,3.29,2.83,1.19,6.09-.12,7.3-2.96,1.19-2.83-.13-6.09-2.96-7.3Zm3814.69.23c-.84-2.24-2.96-3.64-5.22-3.64-.65,0-1.3.12-1.94.36l-7.83,2.89c-2.88,1.06-4.37,4.26-3.3,7.14,1.06,2.89,4.27,4.37,7.15,3.3l7.86-2.91c2.88-1.06,4.35-4.27,3.28-7.15Zm-2398.67,4.98c-.72-2.44-2.93-4.02-5.35-4.02-.52,0-1.04.08-1.55.23l-8.03,2.34c-2.96.86-4.65,3.96-3.78,6.92.86,2.95,3.96,4.63,6.9,3.78l8.02-2.34c2.96-.86,4.66-3.96,3.8-6.9Zm953.62,4.14l-.69-.21-7.3-2.26c-.54-.17-1.1-.25-1.65-.25-2.38,0-4.58,1.53-5.31,3.92-.92,2.95.73,6.07,3.66,6.97l7.96,2.47c2.93.92,6.07-.72,6.98-3.66.04-.12.08-.25.09-.37.66-2.81-.94-5.72-3.76-6.6Zm1411.06,3.38c-.82-2.26-2.96-3.66-5.23-3.66-.64,0-1.29.11-1.91.33l-7.84,2.85c-2.89,1.05-4.39,4.23-3.34,7.13,1.05,2.89,4.25,4.38,7.13,3.34l7.87-2.85c2.89-1.05,4.38-4.25,3.33-7.14Zm-3747.34,1.01c-2.59-1.04-5.16-2.07-7.73-3.11-.69-.28-1.39-.41-2.1-.41-2.19,0-4.27,1.31-5.16,3.48-1.15,2.85.23,6.09,3.08,7.25,2.59,1.05,5.18,2.1,7.78,3.13,2.84,1.14,6.09-.25,7.23-3.11,1.14-2.87-.25-6.11-3.11-7.23Zm1347.89,1.63c-.72-2.43-2.93-4-5.34-4-.52,0-1.05.07-1.58.23l-8.02,2.38c-2.95.86-4.63,3.97-3.76,6.92.88,2.95,3.98,4.62,6.92,3.76l8.02-2.36c2.95-.88,4.63-3.97,3.76-6.92Zm1022.92,4.82l-7.96-2.52c-.56-.17-1.13-.27-1.67-.27-2.38,0-4.57,1.53-5.31,3.9-.93,2.93.7,6.07,3.64,6.98l7.95,2.51c2.93.93,6.07-.69,7-3.62.93-2.93-.7-6.07-3.64-6.98Zm1342.47,4.83c-.81-2.28-2.96-3.7-5.24-3.7-.62,0-1.25.11-1.87.33l-7.86,2.79c-2.91,1.02-4.42,4.21-3.4,7.1,1.02,2.91,4.21,4.42,7.11,3.4l7.87-2.8c2.91-1.04,4.42-4.21,3.38-7.11Zm-2400.11.62c-.72-2.42-2.93-3.98-5.34-3.98-.52,0-1.05.08-1.58.23l-8.02,2.39c-2.95.88-4.62,3.97-3.74,6.92.88,2.96,3.97,4.63,6.92,3.76l8.02-2.38c2.95-.88,4.62-3.98,3.74-6.93Zm-1279.54,1.11c-2.59-.97-5.19-1.95-7.78-2.95-.66-.24-1.33-.36-1.99-.36-2.24,0-4.35,1.37-5.2,3.58-1.09,2.88.35,6.09,3.23,7.18,2.61,1,5.22,1.99,7.83,2.97,2.88,1.08,6.09-.38,7.18-3.27,1.08-2.88-.38-6.08-3.27-7.17Zm2371.68,4.39l-7.95-2.53c-.57-.19-1.14-.27-1.7-.27-2.35,0-4.54,1.5-5.3,3.88-.94,2.93.68,6.07,3.61,7l7.95,2.53c2.93.94,6.07-.68,7-3.61.94-2.92-.68-6.07-3.61-7Zm-1126.84,4.81c-.72-2.43-2.93-4-5.34-4-.53,0-1.06.08-1.59.24l-8,2.38c-2.95.86-4.63,3.97-3.76,6.92.88,2.95,3.97,4.62,6.92,3.76l8.02-2.38c2.95-.88,4.63-3.97,3.76-6.92Zm2400.67,1.1c-.8-2.3-2.95-3.74-5.26-3.74-.61,0-1.22.09-1.82.31l-7.88,2.72c-2.91,1.01-4.46,4.18-3.45,7.09,1,2.91,4.17,4.46,7.07,3.45l7.9-2.73c2.91-1.01,4.45-4.18,3.44-7.09Zm-3611.6,2.03c-2.61-.93-5.23-1.84-7.84-2.79-.62-.21-1.26-.32-1.87-.32-2.3,0-4.43,1.42-5.24,3.69-1.04,2.89.46,6.08,3.37,7.11,2.63.94,5.26,1.87,7.88,2.8,2.92,1.02,6.09-.5,7.11-3.4,1.01-2.91-.5-6.08-3.41-7.1Zm2372.25,3.08l-7.96-2.54c-.56-.19-1.13-.27-1.69-.27-2.36,0-4.55,1.5-5.31,3.86-.94,2.93.68,6.07,3.61,7.01l7.95,2.55c2.92.93,6.07-.68,7.01-3.61.93-2.93-.68-6.07-3.61-7.01Zm-1196.05,4.05c-.7-2.43-2.92-4.01-5.34-4.01-.12,0-.24,0-.34.01-.41.03-.82.09-1.22.21l-4.45,1.3-3.57,1.05c-2.95.86-4.65,3.96-3.78,6.9.86,2.96,3.96,4.65,6.92,3.78l5.34-1.57,2.68-.78c1.01-.29,1.87-.85,2.54-1.58,1.27-1.39,1.81-3.38,1.23-5.32Zm2401.16,2.59c-.78-2.32-2.95-3.78-5.27-3.78-.58,0-1.19.09-1.78.29l-7.9,2.65c-2.03.66-3.41,2.4-3.73,4.37-.15.88-.09,1.79.21,2.68.97,2.91,4.13,4.49,7.03,3.52l1.15-.38,6.78-2.28c2.91-.98,4.47-4.14,3.49-7.06Zm-3543.21,1.91c-2.63-.88-5.27-1.75-7.9-2.63-.58-.2-1.18-.29-1.77-.29-2.34,0-4.5,1.47-5.28,3.81-.98,2.92.6,6.08,3.52,7.05,2.64.89,5.3,1.77,7.95,2.64,2.93.96,6.07-.64,7.03-3.56.96-2.92-.64-6.07-3.56-7.02Zm2372.58,2.46l-7.96-2.54c-.56-.17-1.13-.25-1.7-.25-2.35,0-4.54,1.51-5.3,3.88-.93,2.93.68,6.07,3.61,6.99l7.96,2.54c2.93.94,6.07-.69,7-3.62.93-2.92-.69-6.05-3.61-6.99Zm-1265.27,3.17c-.7-2.44-2.93-4.04-5.35-4.04-.52,0-1.04.08-1.54.23l-8.03,2.3c-2.95.85-4.66,3.93-3.82,6.89.85,2.96,3.93,4.67,6.89,3.82l8.03-2.31c2.96-.85,4.67-3.93,3.82-6.89Zm2401.57,3.9c-.77-2.35-2.95-3.85-5.3-3.85-.57,0-1.15.09-1.73.28l-7.92,2.57c-2.93.94-4.54,4.09-3.6,7.01.96,2.92,4.09,4.53,7.02,3.58l7.95-2.58c2.92-.96,4.53-4.1,3.57-7.02Zm-3474.5,1.38c-2.65-.81-5.31-1.63-7.95-2.46-.56-.17-1.11-.25-1.66-.25-2.38,0-4.58,1.53-5.32,3.92-.92,2.93.73,6.05,3.66,6.97,2.67.84,5.34,1.66,8,2.47,2.95.9,6.05-.76,6.96-3.69.9-2.95-.76-6.05-3.69-6.96Zm2372.69,2.46l-7.96-2.51c-.56-.17-1.12-.25-1.67-.25-2.36,0-4.57,1.51-5.31,3.89-.93,2.95.7,6.07,3.64,7l7.98,2.51c2.93.92,6.07-.72,6.98-3.65.92-2.93-.72-6.07-3.65-6.98Zm-1334.57,2.18c-.69-2.46-2.93-4.06-5.36-4.06-.49,0-1,.07-1.5.2l-8.03,2.24c-2.97.82-4.7,3.89-3.89,6.85.82,2.96,3.89,4.7,6.86,3.88l8.06-2.24c2.96-.82,4.69-3.9,3.86-6.86Zm2401.93,5.07c-.74-2.38-2.95-3.9-5.31-3.9-.56,0-1.11.08-1.67.25l-7.95,2.48c-2.93.92-4.58,4.03-3.66,6.97.92,2.95,4.02,4.58,6.97,3.68l7.98-2.5c2.93-.93,4.57-4.05,3.65-6.98Zm-3405.45.5c-2.67-.76-5.34-1.53-8-2.3-.52-.15-1.04-.23-1.55-.23-2.42,0-4.63,1.59-5.35,4.04-.85,2.95.85,6.04,3.81,6.89,2.68.78,5.38,1.55,8.06,2.31,2.95.84,6.04-.88,6.88-3.84.84-2.96-.88-6.04-3.84-6.88Zm968.64,4.06c-.68-2.5-2.92-4.13-5.38-4.13-.48,0-.97.07-1.45.19l-8.06,2.15c-2.97.8-4.74,3.85-3.94,6.82.78,2.97,3.85,4.74,6.81,3.94l8.07-2.15c2.97-.8,4.74-3.86,3.94-6.82Zm1404-1.08l-7.98-2.46c-.54-.17-1.1-.25-1.65-.25-2.38,0-4.58,1.53-5.31,3.93-.92,2.93.73,6.05,3.68,6.96l7.99,2.47c2.95.9,6.05-.76,6.96-3.69.9-2.93-.74-6.05-3.69-6.96Zm998.25,7.19c-.72-2.42-2.93-3.97-5.32-3.97-.53,0-1.08.08-1.61.24-2.67.8-5.32,1.59-7.98,2.39-2.96.88-4.63,3.98-3.76,6.93s3.98,4.62,6.93,3.74c2.67-.8,5.34-1.59,8-2.39,2.95-.89,4.62-4,3.73-6.94Zm-3336.07-.69c-2.69-.7-5.38-1.41-8.06-2.12-.48-.13-.97-.2-1.43-.2-2.47,0-4.71,1.65-5.38,4.14-.8,2.97.97,6.03,3.94,6.81,2.69.73,5.39,1.43,8.1,2.15,2.97.77,6.01-1.01,6.8-3.98.78-2.97-1-6.01-3.97-6.8Zm898.84,3.81c-.65-2.51-2.91-4.18-5.39-4.18-.46,0-.93.05-1.39.17l-8.07,2.04c-2.99.76-4.79,3.78-4.04,6.77.76,2.99,3.78,4.78,6.77,4.04l8.1-2.06c2.99-.76,4.78-3.8,4.02-6.78Zm1473.61.17l-8-2.4c-.53-.16-1.06-.24-1.61-.24-2.39,0-4.61,1.57-5.32,3.97-.89,2.95.78,6.05,3.73,6.94l8.02,2.4c2.95.88,6.05-.8,6.93-3.74.88-2.95-.8-6.05-3.74-6.93Zm-2337.46,4.8c-2.69-.65-5.4-1.31-8.1-1.96-.44-.11-.89-.16-1.33-.16-2.51,0-4.78,1.7-5.4,4.23-.73,2.99,1.1,6.01,4.09,6.74,2.71.66,5.42,1.31,8.14,1.96,2.97.73,6-1.12,6.72-4.11.72-2.99-1.13-5.99-4.11-6.7Zm3266.4,2.16c-.7-2.44-2.93-4.04-5.35-4.04-.5,0-1.02.07-1.54.23l-8,2.27c-2.96.84-4.67,3.92-3.84,6.88.84,2.96,3.92,4.69,6.88,3.85,2.68-.76,5.36-1.53,8.04-2.3,2.95-.85,4.66-3.93,3.81-6.89Zm-2437.64,1.66c-.61-2.55-2.89-4.27-5.42-4.27-.42,0-.86.05-1.3.16-2.69.65-5.4,1.29-8.1,1.92-3,.72-4.85,3.7-4.14,6.7.7,3,3.7,4.84,6.7,4.14,2.71-.64,5.43-1.29,8.14-1.94,2.99-.72,4.83-3.73,4.11-6.72Zm1543.41,1.53l-8.02-2.31c-.52-.16-1.04-.23-1.55-.23-1.09,0-2.14.32-3.03.9-1.09.69-1.94,1.78-2.32,3.12-.35,1.19-.27,2.42.15,3.5.6,1.59,1.91,2.88,3.66,3.4l8.04,2.31c2.95.85,6.04-.86,6.89-3.81.85-2.96-.86-6.04-3.82-6.89Zm-2337.01,2.71c-2.71-.6-5.42-1.19-8.12-1.79-.41-.09-.82-.15-1.22-.15-2.55,0-4.84,1.77-5.43,4.37-.68,3,1.22,5.97,4.22,6.64,2.72.61,5.46,1.22,8.18,1.82,3,.65,5.97-1.25,6.64-4.26.65-3-1.25-5.97-4.26-6.62Zm758.37,4.01c-.57-2.59-2.88-4.35-5.43-4.35-.4,0-.81.04-1.21.13-2.71.6-5.43,1.19-8.14,1.79-3,.65-4.91,3.61-4.26,6.62.66,3,3.61,4.91,6.64,4.25,2.72-.58,5.44-1.19,8.18-1.79,3-.66,4.88-3.64,4.22-6.65Zm2438.05-.11c-.68-2.48-2.92-4.11-5.38-4.11-.48,0-.97.07-1.46.2-2.44.66-4.88,1.33-7.33,1.98-.24.07-.46.12-.7.19-1.69.45-2.99,1.63-3.64,3.11-.52,1.13-.65,2.43-.31,3.72.77,2.85,3.61,4.59,6.46,4.02.12-.01.24-.05.36-.08,1.79-.48,3.57-.96,5.35-1.45.9-.24,1.82-.48,2.72-.73,2.97-.81,4.73-3.86,3.92-6.84Zm-824.59,3.15l-8.04-2.22c-.5-.13-1-.2-1.49-.2-2.44,0-4.69,1.62-5.36,4.09-.82,2.96.92,6.03,3.88,6.85l8.08,2.22c2.97.81,6.03-.94,6.84-3.9.81-2.97-.93-6.03-3.9-6.84Zm-2336.49.31c-2.72-.54-5.44-1.09-8.16-1.65-.37-.07-.74-.11-1.12-.11-2.59,0-4.91,1.83-5.46,4.47-.61,3.01,1.34,5.95,4.35,6.56,2.73.56,5.48,1.1,8.22,1.65,3.03.6,5.95-1.37,6.54-4.39.6-3.01-1.37-5.95-4.38-6.53Zm687.68,4.27c-.54-2.64-2.87-4.47-5.46-4.47-.37,0-.74.04-1.11.12-2.72.54-5.44,1.09-8.16,1.62-3.01.6-4.98,3.53-4.38,6.54.58,3.01,3.53,4.99,6.53,4.39,2.75-.54,5.48-1.09,8.22-1.65,3.01-.6,4.96-3.54,4.37-6.56Zm2438.46,1.57c-.65-2.52-2.91-4.19-5.39-4.19-.46,0-.93.07-1.38.17-2.69.69-5.39,1.37-8.07,2.04-2.99.76-4.79,3.78-4.05,6.76.76,2.99,3.78,4.8,6.76,4.05,2.71-.68,5.42-1.37,8.11-2.06,2.99-.76,4.78-3.78,4.02-6.77Zm-3090.67.78c-2.73-.49-5.47-.97-8.19-1.47-.35-.05-.68-.08-1.01-.08-2.64,0-4.98,1.88-5.47,4.57-.54,3.03,1.46,5.93,4.49,6.48,2.75.5,5.5,1,8.24,1.47,3.03.53,5.92-1.49,6.45-4.51.54-3.03-1.49-5.92-4.51-6.45Zm616.68,4.55c-.49-2.69-2.84-4.59-5.48-4.59-.32,0-.65.03-.98.09-2.73.49-5.47.97-8.2,1.45-3.03.53-5.06,3.41-4.53,6.44.53,3.04,3.41,5.07,6.44,4.54,2.75-.48,5.51-.97,8.26-1.46,3.03-.54,5.04-3.44,4.5-6.46Zm1719.28-2.23c-2.69-.69-5.39-1.39-8.07-2.08-.48-.13-.94-.19-1.41-.19-2.48,0-4.74,1.66-5.39,4.17-.78,2.97,1.01,6.01,3.98,6.8,2.71.7,5.4,1.39,8.11,2.1,2.99.76,6.01-1.04,6.78-4.01.77-2.99-1.02-6.01-4.01-6.78Zm719.61,5.64c-.6-2.56-2.89-4.29-5.4-4.29-.44,0-.86.05-1.3.16-2.69.64-5.4,1.27-8.1,1.91-3,.69-4.86,3.69-4.15,6.69.7,2.99,3.68,4.84,6.69,4.15,2.71-.64,5.43-1.27,8.14-1.92,3-.7,4.84-3.72,4.13-6.7Zm-3015.78,1.11c-.74-1.63-2.28-2.88-4.19-3.19-.09-.01-.2-.03-.29-.04-2.65-.41-5.28-.82-7.94-1.25-.29-.05-.6-.08-.89-.08-2.68,0-5.04,1.95-5.48,4.69-.49,3.04,1.58,5.89,4.61,6.38,1.01.16,2,.32,3.01.48,1.75.28,3.52.56,5.27.82.25.04.49.05.74.07,2.75.07,5.18-1.92,5.61-4.71.17-1.12,0-2.22-.45-3.17Zm541.21,1.59c-.42-2.73-2.8-4.7-5.5-4.7-.28,0-.57.03-.86.07-2.75.44-5.48.86-8.23,1.27-3.04.46-5.14,3.31-4.67,6.34.46,3.04,3.32,5.12,6.34,4.67,2.76-.42,5.52-.85,8.28-1.29,3.04-.48,5.11-3.33,4.63-6.37Zm1790.03.35c-2.71-.65-5.4-1.3-8.11-1.95-.44-.11-.88-.16-1.31-.16-2.51,0-4.79,1.71-5.42,4.25-.72,3,1.12,6,4.1,6.73,2.72.66,5.43,1.31,8.15,1.96,2.99.72,6-1.13,6.72-4.13.7-2.99-1.14-6-4.13-6.7Zm-2299.73.05c-2.75-.36-5.51-.74-8.26-1.13-.25-.03-.52-.05-.77-.05-2.73,0-5.12,2.02-5.51,4.81-.42,3.04,1.7,5.85,4.74,6.28,2.77.4,5.53.77,8.31,1.14,3.04.39,5.85-1.73,6.26-4.78.41-3.04-1.74-5.85-4.78-6.27Zm473.91,4.98c-.38-2.8-2.77-4.82-5.52-4.82-.24,0-.49.01-.76.04-2.75.39-5.49.74-8.24,1.1-3.05.4-5.2,3.2-4.8,6.25.4,3.04,3.2,5.18,6.24,4.79,2.77-.36,5.55-.73,8.31-1.1,3.05-.41,5.19-3.23,4.78-6.27Zm2475.13.07c-.57-2.6-2.87-4.37-5.43-4.37-.4,0-.8.04-1.21.13-2.71.58-5.42,1.18-8.12,1.77-3.01.64-4.92,3.61-4.27,6.61.65,3.01,3.61,4.91,6.61,4.27,2.73-.58,5.46-1.18,8.18-1.78,3.01-.65,4.91-3.62,4.25-6.64Zm-2913.25-.58c-2.75-.32-5.51-.64-8.27-.97-.23-.03-.44-.04-.66-.04-2.77,0-5.19,2.08-5.52,4.91-.36,3.05,1.82,5.83,4.87,6.19,2.77.33,5.55.65,8.32.97,3.07.33,5.83-1.85,6.17-4.9.35-3.05-1.84-5.81-4.91-6.16Zm402.21,5.11c-.33-2.84-2.73-4.92-5.52-4.92-.21,0-.42.01-.65.03-2.75.32-5.51.62-8.27.93-3.05.33-5.27,3.08-4.92,6.15.33,3.05,3.08,5.24,6.13,4.92,2.79-.31,5.56-.61,8.34-.93,3.05-.35,5.24-3.11,4.9-6.17Zm1896.92-1.59c-.25-.05-.5-.11-.76-.16-2.47-.53-4.92-1.08-7.38-1.63-.41-.09-.82-.13-1.22-.13-2.55,0-4.84,1.77-5.43,4.35-.66,3,1.22,5.99,4.22,6.65,2.73.61,5.46,1.21,8.19,1.81,1.71.37,3.41-.08,4.67-1.1.96-.77,1.67-1.86,1.95-3.16.66-3-1.25-5.97-4.25-6.62Zm-2258.21,6.27c.29-3.07-1.96-5.77-5.02-6.07-.48-.04-.96-.09-1.43-.13-2.3-.23-4.58-.44-6.86-.66-.19-.01-.37-.03-.56-.03-2.83,0-5.24,2.15-5.53,5.03-.13,1.37.24,2.67.98,3.72.89,1.3,2.34,2.2,4.02,2.36,2.77.28,5.56.54,8.34.8,3.07.31,5.77-1.96,6.07-5.02Zm2836.95-1.67c-.41-2.1-1.96-3.68-3.88-4.25-.5-.15-1.04-.23-1.57-.23-.37,0-.73.04-1.1.12-1.34.27-2.67.53-4.01.78-1.38.28-2.77.56-4.15.82-3.01.6-4.99,3.52-4.39,6.53.36,1.85,1.57,3.29,3.15,4.01,1.02.46,2.19.64,3.38.4.97-.2,1.94-.38,2.91-.57,1.77-.36,3.53-.7,5.31-1.06,3.01-.6,4.96-3.53,4.35-6.56Zm-2511.65.85c-.28-2.88-2.71-5.04-5.55-5.04-.17,0-.35,0-.52.01-2.76.27-5.53.52-8.3.76-3.07.27-5.32,2.97-5.06,6.04.27,3.05,2.96,5.32,6.04,5.06,2.77-.25,5.56-.5,8.34-.76,3.07-.29,5.32-3,5.04-6.07Zm-289.23,3.7c.2-2.63-1.46-4.96-3.88-5.71-.4-.13-.82-.23-1.26-.25-2.77-.2-5.55-.41-8.31-.62-.15-.01-.29-.01-.44-.01-2.88,0-5.32,2.22-5.55,5.14-.24,3.07,2.06,5.75,5.12,5.99,2.79.21,5.57.42,8.35.62,2.54.19,4.8-1.35,5.64-3.62.17-.48.28-1,.32-1.53Zm253.15-.61c-.21-2.93-2.65-5.18-5.55-5.18-.13,0-.27.01-.4.01-2.77.2-5.54.4-8.31.58-3.07.2-5.39,2.85-5.18,5.93.2,3.07,2.85,5.39,5.92,5.18,2.79-.19,5.57-.39,8.36-.58,3.07-.21,5.38-2.88,5.15-5.95Zm-217.01,2.76c.16-3.08-2.2-5.69-5.27-5.85-2.77-.15-5.55-.31-8.32-.46h-.32c-2.93,0-5.39,2.28-5.55,5.24-.19,3.08,2.16,5.71,5.23,5.88,2.8.16,5.59.32,8.38.46,3.05.13,5.69-2.2,5.85-5.27Zm2221.32-4c-2.72-.53-5.44-1.08-8.16-1.62-.37-.08-.74-.11-1.1-.11-2.6,0-4.92,1.83-5.46,4.47-.6,3.01,1.35,5.95,4.37,6.56,2.73.54,5.48,1.09,8.23,1.62,3.03.6,5.93-1.38,6.53-4.39.58-3.03-1.38-5.95-4.41-6.53Zm-2040.43,3.56c-.15-2.97-2.61-5.28-5.55-5.28-.11,0-.2.01-.29.01-2.73.15-5.46.28-8.19.4h-.13c-3.07.15-5.44,2.75-5.3,5.83.07,1.5.72,2.83,1.73,3.78,1.06,1.01,2.51,1.59,4.09,1.53,2.79-.13,5.59-.27,8.38-.41,3.07-.16,5.43-2.77,5.27-5.85Zm-144.73,1.83c.11-3.07-2.31-5.64-5.39-5.73-2.77-.09-5.55-.19-8.31-.29h-.21c-2.99,0-5.46,2.36-5.56,5.36-.12,3.08,2.28,5.65,5.36,5.77,2.79.11,5.59.2,8.38.28,3.09.07,5.64-2.31,5.73-5.39Zm2693.07-1.23c-.48-2.69-2.83-4.58-5.47-4.58-.33,0-.66.03-1,.08-2.72.49-5.46.98-8.19,1.46-3.03.53-5.06,3.41-4.53,6.44.53,3.03,3.41,5.06,6.45,4.53,2.75-.48,5.5-.97,8.24-1.46,3.03-.54,5.03-3.44,4.49-6.46Zm-2584.49.98c-.09-3.01-2.56-5.39-5.56-5.39h-.17c-2.77.08-5.55.16-8.32.23-3.08.08-5.51,2.64-5.43,5.71.08,3.03,2.56,5.43,5.56,5.43h.15c2.8-.07,5.59-.15,8.38-.24,3.08-.08,5.49-2.65,5.4-5.73Zm-72.38.92c.03-3.08-2.43-5.59-5.51-5.63-2.77-.03-5.55-.07-8.32-.11h-.09c-3.04,0-5.52,2.43-5.56,5.47-.05,3.08,2.4,5.61,5.47,5.65,2.8.05,5.59.09,8.39.12,3.01.09,5.59-2.43,5.63-5.51Zm36.2-.08c-.03-3.05-2.52-5.51-5.57-5.51h-.05c-2.77.03-5.55.04-8.32.05-3.08.01-5.56,2.52-5.54,5.6.01,3.07,2.5,5.53,5.56,5.53h.03c2.8-.01,5.59-.03,8.38-.05,3.08-.04,5.55-2.55,5.52-5.63Zm2148.24.49c-2.73-.46-5.46-.94-8.19-1.42-.33-.05-.65-.08-.97-.08-2.65,0-5,1.9-5.48,4.61-.53,3.03,1.49,5.92,4.53,6.45,2.75.48,5.5.96,8.26,1.42,3.03.52,5.91-1.53,6.42-4.55.52-3.04-1.53-5.91-4.57-6.42Zm436.8,3.84c-.42-2.75-2.8-4.7-5.48-4.7-.29,0-.58.01-.89.07-2.73.42-5.47.86-8.22,1.27-3.04.46-5.12,3.31-4.66,6.34.46,3.04,3.31,5.12,6.34,4.66,2.76-.41,5.52-.85,8.28-1.27,3.04-.49,5.11-3.34,4.62-6.37Zm-401.2,1.73c-2.75-.4-5.48-.8-8.23-1.21-.28-.04-.54-.05-.82-.05-2.71,0-5.08,1.98-5.5,4.75-.45,3.04,1.65,5.87,4.69,6.32,2.76.41,5.52.82,8.28,1.21,3.08.44,5.87-1.67,6.3-4.73.44-3.04-1.69-5.87-4.73-6.29Zm365.44,3.65c-.38-2.8-2.77-4.82-5.51-4.82-.25,0-.5.01-.76.04-2.75.37-5.49.74-8.24,1.1-3.05.4-5.2,3.19-4.81,6.24.4,3.05,3.17,5.2,6.24,4.81,2.77-.36,5.54-.73,8.3-1.1,3.05-.41,5.19-3.23,4.78-6.27Zm-35.88,4.57c-.32-2.84-2.73-4.95-5.53-4.95-.2,0-.41.01-.62.04-2.76.31-5.51.61-8.27.9-3.05.32-5.27,3.07-4.95,6.12.33,3.07,3.05,5.3,6.13,4.95,2.77-.29,5.55-.6,8.32-.9,3.07-.35,5.26-3.11,4.92-6.16Zm-293.85-3.65c-2.76-.32-5.51-.64-8.26-.97-.23-.03-.45-.04-.68-.04-2.77,0-5.18,2.08-5.52,4.91-.36,3.05,1.82,5.83,4.87,6.19,2.77.35,5.55.66,8.32.98,3.04.35,5.81-1.86,6.16-4.91.35-3.05-1.84-5.81-4.9-6.16Zm257.86,7.38c-.27-2.91-2.69-5.1-5.55-5.1-.16,0-.32.01-.49.03-2.76.24-5.52.48-8.28.7-1.77.13-3.27,1.09-4.18,2.47-.68,1-1.02,2.23-.92,3.53.19,2.43,1.91,4.38,4.15,4.94.58.16,1.21.21,1.84.16,2.79-.23,5.56-.46,8.35-.7,3.07-.27,5.34-2.97,5.07-6.03Zm-216.91,2.12c.25-3.07-2.03-5.76-5.1-6.01-2.76-.21-5.52-.45-8.28-.7-.17-.01-.33-.03-.5-.03-2.85,0-5.28,2.19-5.53,5.08-.28,3.07,1.98,5.76,5.04,6.04,2.79.25,5.57.49,8.36.72,3.04.25,5.76-2.03,6.01-5.1Zm180.84.69c-.19-2.95-2.64-5.22-5.56-5.22h-.35c-2.76.17-5.53.35-8.3.49-3.08.17-5.43,2.8-5.26,5.87.17,3.07,2.81,5.44,5.87,5.26,2.79-.16,5.59-.32,8.38-.49,3.07-.19,5.4-2.84,5.22-5.91Zm-144.72,1.54c.16-3.07-2.2-5.68-5.27-5.84-2.77-.15-5.53-.29-8.31-.45-.11-.01-.21-.01-.32-.01-2.93,0-5.39,2.28-5.56,5.24-.17,3.08,2.16,5.71,5.24,5.88,2.79.17,5.58.32,8.38.46,3.09.11,5.68-2.2,5.84-5.28Zm108.58.36c-.11-3-2.57-5.38-5.56-5.38h-.2c-2.77.09-5.55.19-8.32.27-3.07.09-5.5,2.65-5.4,5.72.09,3.08,2.71,5.46,5.72,5.42,2.8-.08,5.59-.17,8.39-.27,3.07-.11,5.48-2.68,5.38-5.76Zm-72.39.81c.07-3.08-2.38-5.63-5.44-5.69-2.77-.05-5.55-.13-8.32-.21h-.16c-3,0-5.48,2.39-5.56,5.42-.09,3.07,2.34,5.64,5.4,5.72,2.8.08,5.6.15,8.39.21,3.09.12,5.63-2.38,5.69-5.44Zm36.2.11c-.01-3.07-2.51-5.53-5.56-5.53h-.04c-2.77.01-5.55.03-8.32.03-3.08,0-5.57,2.5-5.57,5.57s2.5,5.56,5.57,5.56c2.8,0,5.6-.01,8.39-.03,3.08-.03,5.56-2.54,5.53-5.6Z"/>
        <g class="cls-8">
          <path class="cls-2" d="m4000,1516.61v683.39H0v-675.63c30.93-5.7,64-10.87,99.51-15.34,88.27-10.64,176.28-6.82,260.11,10.13,8.84,1.78,17.64,3.72,26.39,5.8h.01c56.83,13.5,111.48,33.11,162.71,58.37.09.05.2.1.29.15,3.95,1.95,7.87,3.93,11.73,5.92,9.01,4.64,17.85,9.39,26.55,14.21,1.53.84,3.07,1.69,4.59,2.54,60.48,33.77,115.51,70.53,185.93,96.35,88.05,32.28,183.4,53.48,280.85,61.63,129.84,10.86,266.69.5,390.61-30.64,32.03-8.05,64.97-17.63,96.24-29.47,3.37-1.27,6.72-2.57,10.04-3.91,12.17-4.86,24.04-10.09,35.45-15.72,1.52-.75,3.04-1.51,4.53-2.28,10.92-5.55,21.39-11.5,31.25-17.87,30.85-19.93,54.53-39.87,81.84-58.34,2.53-1.71,5.09-3.41,7.69-5.1,16.99-11.01,35.67-21.43,58.43-30.94,38.49-16.09,78.53-30.04,119.69-41.82,1.76-.51,3.53-1.01,5.29-1.5,73.73-20.73,150.95-34.52,229.19-41.17,2.12-.18,4.25-.36,6.37-.53,9.91-.79,19.84-1.47,29.77-2.04,24.83-1.41,52.8-2.54,82.47-2.94,2.04-.02,4.09-.05,6.15-.07,79.23-.77,169.55,3.79,243.48,21.97,1.81.45,3.61.9,5.4,1.36,27.64,7.13,52.84,16.23,74.12,27.76,36.83,19.95,56.81,55.15,90.33,78.71,2.76,1.94,5.56,3.86,8.39,5.75,2.76,1.87,5.56,3.7,8.37,5.5,31.03,19.98,65.31,37.39,100.92,52.66,1.64.71,3.28,1.4,4.92,2.09,13.17,5.56,26.51,10.84,39.93,15.84,117.47,43.82,249.95,68.95,381.2,71.03,3.57.06,7.15.1,10.72.12,153.75.94,307.49-30.43,439.95-88.89,17.57-7.76,34.76-16.12,51.71-24.83,2.83-1.45,5.63-2.91,8.44-4.38,28.81-15.05,57.07-31,85.6-46.56,2.07-1.13,4.12-2.25,6.19-3.37,58.4-31.68,118.23-61.33,186.64-77.94Z"/>
        </g>
        <g>
          <g>
            <path class="cls-2" d="m3025.4,1461.11c-3.48,0-6.29-2.82-6.29-6.29v-43.47c0-3.48,2.82-6.29,6.29-6.29s6.29,2.82,6.29,6.29v43.47c0,3.48-2.82,6.29-6.29,6.29Z"/>
            <path class="cls-2" d="m3047.14,1439.37h-43.47c-3.48,0-6.29-2.82-6.29-6.29s2.82-6.29,6.29-6.29h43.47c3.48,0,6.29,2.82,6.29,6.29s-2.82,6.29-6.29,6.29Z"/>
          </g>
          <path class="cls-2" d="m3025.4,1489.02c-30.84,0-55.94-25.09-55.94-55.94s25.09-55.94,55.94-55.94,55.94,25.09,55.94,55.94-25.09,55.94-55.94,55.94Zm0-99.29c-23.9,0-43.35,19.45-43.35,43.35s19.45,43.35,43.35,43.35,43.35-19.45,43.35-43.35-19.45-43.35-43.35-43.35Z"/>
        </g>
        <g>
          <g>
            <path class="cls-2" d="m1636.24,2086.23c-1.74,0-3.15-1.41-3.15-3.15v-43.47c0-1.74,1.41-3.15,3.15-3.15s3.15,1.41,3.15,3.15v43.47c0,1.74-1.41,3.15-3.15,3.15Z"/>
            <path class="cls-2" d="m1657.98,2064.49h-43.47c-1.74,0-3.15-1.41-3.15-3.15s1.41-3.15,3.15-3.15h43.47c1.74,0,3.15,1.41,3.15,3.15s-1.41,3.15-3.15,3.15Z"/>
          </g>
          <path class="cls-2" d="m1636.24,2114.14c-29.11,0-52.79-23.68-52.79-52.79s23.68-52.79,52.79-52.79,52.79,23.68,52.79,52.79-23.68,52.79-52.79,52.79Zm0-99.29c-25.64,0-46.5,20.86-46.5,46.5s20.86,46.5,46.5,46.5,46.5-20.86,46.5-46.5-20.86-46.5-46.5-46.5Z"/>
        </g>
        <g>
          <path class="cls-2" d="m649.59,1233.83h-30.52c-1.74,0-3.15-1.41-3.15-3.15s1.41-3.15,3.15-3.15h30.52c1.74,0,3.15,1.41,3.15,3.15s-1.41,3.15-3.15,3.15Z"/>
          <path class="cls-2" d="m634.33,1268.68c-20.95,0-37.99-17.04-37.99-37.99s17.04-37.99,37.99-37.99,37.99,17.04,37.99,37.99-17.04,37.99-37.99,37.99Zm0-69.7c-17.48,0-31.7,14.22-31.7,31.7s14.22,31.7,31.7,31.7,31.7-14.22,31.7-31.7-14.22-31.7-31.7-31.7Z"/>
        </g>
        <path class="cls-1" d="m2080.59,1943.87l-6.66,3.15c-10.45,7.61-9.65,26.11,1.42,32.79,11.07,6.68,27.81-1.23,29.67-14.03,1.86-12.79-11.92-25.15-24.43-21.91Z"/>
        <path class="cls-1" d="m1704.31,1357.13l-6.66,3.15c-10.45,7.61-9.65,26.11,1.42,32.79,11.07,6.68,27.81-1.23,29.67-14.03,1.86-12.79-11.92-25.15-24.43-21.91Z"/>
        <path class="cls-1" d="m3235.75,1505.21l-6.66,3.15c-10.45,7.61-9.65,26.11,1.42,32.79,11.07,6.68,27.81-1.23,29.67-14.03,1.86-12.79-11.92-25.15-24.43-21.91Z"/>
        <path class="cls-1" d="m1310.37,1501.62l-6.66,3.15c-10.45,7.61-9.65,26.11,1.42,32.79,11.07,6.68,27.81-1.23,29.67-14.03,1.86-12.79-11.92-25.15-24.43-21.91Z"/>
      </g>
    </g>
  </svg>