<?xml version="1.0" encoding="utf-8"?>
<!-- Generator: Adobe Illustrator 27.1.0, SVG Export Plug-In . SVG Version: 6.00 Build 0)  -->
<svg version="1.1" id="Layer_1" xmlns="http://www.w3.org/2000/svg" xmlns:xlink="http://www.w3.org/1999/xlink" x="0px" y="0px"
	 viewBox="0 0 105 118" style="enable-background:new 0 0 105 118;" xml:space="preserve">
<style type="text/css">
	.st0{fill:#252525;}
</style>
<path class="st0" d="M55,108.4c-0.6,0-1,0-1.4,0c-15.8,0-31.6,0-47.4,0c-4,0-6-2-6-6c0-31.9,0-63.9,0-95.8c0-4.1,2-6,6-6
	c3.1,0,6.3,0,9.4,0c1.6,0,2.4,0.7,2.4,2c0,1.2-0.9,1.9-2.4,1.9c-3.2,0-6.4,0-9.6,0c-1.6,0-1.9,0.3-1.9,2c0,24.8,0,49.6,0,74.4
	c0,7.2,0,14.5,0,21.7c0,1.7,0.3,2,2,2c15.3,0,30.6,0,46,0c0.9,0,1.4,0.2,1.7,1.1C54.1,106.6,54.5,107.4,55,108.4z"/>
<path class="st0" d="M56.9,94.1c0-13.3,10.7-23.9,24-23.9c13.2,0,23.9,10.7,23.9,23.9c0,13.2-10.8,24-24,23.9
	C67.6,118,56.9,107.3,56.9,94.1z M80.8,114.1c11.1,0,20.1-8.9,20.1-20c0-17.5-21.8-26.6-34.2-14.2C54.3,92.2,63.3,114.1,80.8,114.1z
	"/>
<path class="st0" d="M87.6,65.6c-1.3-0.2-2.6-0.4-3.9-0.7c0-0.5,0-1,0-1.5c0-19,0-38,0-57c0-0.3,0-0.6,0-0.9c0-1.3-0.4-1.7-1.7-1.7
	c-5.2,0-10.4,0-15.7,0c-8.7,0-17.4,0-26.2,0c-1.5,0-2.3-0.6-2.5-1.7C37.6,0.9,38.4,0,39.9,0c3.7,0,7.3,0,11,0c10.3,0,20.6,0,31,0
	c3.7,0,5.8,2,5.8,5.7c0,19.5,0,39.1,0,58.6C87.6,64.7,87.6,65.1,87.6,65.6z"/>
<path class="st0" d="M12.5,88.1c0-5.6,0-11.1,0-16.7c5.6,0,11.1,0,16.7,0c0,5.6,0,11.1,0,16.7C23.6,88.1,18.1,88.1,12.5,88.1z
	 M16.3,84.2c3,0,6,0,8.9,0c0-3,0-5.9,0-8.9c-3,0-5.9,0-8.9,0C16.3,78.3,16.3,81.2,16.3,84.2z"/>
<path class="st0" d="M12.5,62.1c0-5.6,0-11.1,0-16.7c5.6,0,11.1,0,16.7,0c0,5.6,0,11.1,0,16.7C23.6,62.1,18.1,62.1,12.5,62.1z
	 M16.3,58.2c3,0,6,0,8.9,0c0-3,0-5.9,0-8.9c-3,0-5.9,0-8.9,0C16.3,52.3,16.3,55.2,16.3,58.2z"/>
<path class="st0" d="M12.5,36.1c0-5.6,0-11.1,0-16.7c5.6,0,11.1,0,16.7,0c0,5.6,0,11.1,0,16.7C23.6,36.1,18.1,36.1,12.5,36.1z
	 M16.3,32.2c3,0,6,0,8.9,0c0-3,0-5.9,0-8.9c-3,0-5.9,0-8.9,0C16.3,26.3,16.3,29.2,16.3,32.2z"/>
<path class="st0" d="M27.8,4.5c-1.6,0-6.1,0.5-5.1-2.5c0.7-2,3.7-1.4,5.2-1.4c1.6,0,5.2-0.6,5.2,1.9C33.2,5.2,29.4,4.5,27.8,4.5z"/>
<path class="st0" d="M78.8,98.7c2.5-2.7,4.9-5.4,7.4-8.2c1-1.2,5.8-7.3,6.8-3c0.5,2.3-4.8,6.6-6.3,8.2c-2.4,2.6-5.7,5.4-7.5,8.5
	c-1.8-1.6-3.7-3.2-5.5-4.8c-1.2-1.1-4.1-2.7-4.2-4.5c-0.3-5.4,7.6,2.2,8.4,2.9C78.1,98.2,78.4,98.4,78.8,98.7z"/>
<rect x="37.2" y="19.4" class="st0" width="37.3" height="5"/>
<rect x="37.2" y="25.6" class="st0" width="29.8" height="5"/>
<rect x="37.2" y="46.1" class="st0" width="37.3" height="5"/>
<rect x="37.2" y="53" class="st0" width="29.8" height="5"/>
<rect x="37.8" y="72.2" class="st0" width="22.4" height="5"/>
<rect x="37.8" y="79.1" class="st0" width="17.9" height="5"/>
</svg>
