<?xml version="1.0" encoding="utf-8"?>
<!-- Generator: Adobe Illustrator 27.1.0, SVG Export Plug-In . SVG Version: 6.00 Build 0)  -->
<svg version="1.1" id="Layer_1" xmlns="http://www.w3.org/2000/svg" xmlns:xlink="http://www.w3.org/1999/xlink" x="0px" y="0px"
	 viewBox="0 0 107 114" style="enable-background:new 0 0 107 114;" xml:space="preserve">
<style type="text/css">
	.st0{fill:#252525;}
</style>
<g>
	<path class="st0" d="M35.6,90.1c1.7,0,3.2,0,4.6,0c0.2,1.4,0.3,2.8,0.6,4.2c1.9,8,8.5,13.8,16.9,14.6c7.9,0.7,15.4-3.7,18.7-10.9
		C83.7,82.2,90.8,66.4,98,50.7c1.6-3.5,3-7,3.5-10.8c1.1-8.8-1.1-16.6-6.7-23.4C88.4,8.5,79.9,4.8,69.8,5.1
		c-14.3,0.4-27,11.8-29,25.9c-0.2,1.5-0.3,3.1-0.5,4.7c-1.4,0-2.9,0-4.7,0c0.2-1.8,0.2-3.5,0.5-5.2C38.6,16.5,46.5,6.9,59.9,2.2
		c20.4-7.1,42.4,6.1,46.1,27.3c1.3,7.4,0.3,14.6-2.9,21.4c-7.5,16.3-14.9,32.7-22.4,49c-4.3,9.4-14.4,14.9-24.7,13.5
		c-10.2-1.4-18.3-9.3-20-19.4C35.8,92.8,35.7,91.5,35.6,90.1z"/>
	<path class="st0" d="M52.4,33.5c12.6,1.2,22,12.9,21,25.4c-1,11.9-11.3,22-23.5,21.6c0-1.5,0-3,0-4.6c10.5-0.4,19.3-8.9,18.8-19.7
		c-0.5-11.4-10.4-18.7-21.4-18.1c0.4-4.4,0.6-8.6,2.5-12.7c1.6-3.3,3.9-6.1,6.7-8.3c5.9-4.6,13.9-6.2,21.1-4.1
		c7.1,2.1,13,7.5,15.5,14.5c3.5,9.3-0.3,17.3-4.2,25.8C84.1,64,79.4,74.9,74.3,85.5c-1.4-0.6-2.8-1.3-4.2-1.9
		c3.2-8.5,7.6-16.8,11.4-25.1c1.9-4.1,3.8-8.2,5.7-12.4c1.5-3.2,2.7-6.3,2.9-9.8c0.4-12.8-12.5-22.6-24.7-18.6
		c-6.8,2.2-12,8.3-12.9,15.5C52.3,33.3,52.4,33.3,52.4,33.5z"/>
	<path class="st0" d="M31.1,59.1c0.8-4.3,1.5-8.7,2.3-13.1c0.3-1.6,0.8-3.3,2.9-3c1.9,0.3,2,2.3,2.3,3.9c0.3,1.9,0.7,3.9,1,5.8
		c0.4,2.3,1.1,1.9,3.4,1.9c4.3,0,8.6,0,12.8,0c0,1.6,0,3,0,4.7c-3.5,0-7,0-10.5,0c-3.2,0-6.4,0.3-9.5-0.7c-0.7,4.2-1.5,8.4-2.2,12.7
		c-0.3,1.6-0.3,3.7-2.3,4c-1.5,0.3-2.3-0.8-2.7-2.1c-1.3-4.1-1.6-9-2.4-13.3c-0.8-4.4-1.4-8.8-2.5-13.1c-0.6,2.8-1,5.6-1.5,8.4
		c-0.6,3.2-1.2,3.9-4.5,3.9c-2.9,0-5.7,0-8.6,0c-1.5,0-3,0-4.5,0c-1.2,0-3.1,0.3-4.3-0.1c0-1.4,0-2.9,0-4.5
		c3.3-0.2,6.7-0.1,10.1-0.1c1.8,0,6.3,0.9,7.3-0.8c0.6-1.1,0.6-3.1,0.8-4.4c0.3-1.7,0.6-3.5,0.9-5.2c0.6-3.5,1.2-6.9,1.9-10.4
		c0.3-1.8,1.5-4.4,3.8-2.8c1.8,1.3,1.8,5.9,2.1,7.9c1.2,6.7,2.4,13.4,3.6,20.1C31,59.1,31,59.1,31.1,59.1z"/>
</g>
</svg>
